<svg xmlns="http://www.w3.org/2000/svg" xml:space="preserve" x="0px" y="0px" viewBox="0 0 300 273.7"><path d="m300 0-33.7.3h-1.1c-2 0-6.5 0-12.7.6-9.3.8-22.6 3.1-36.2 7.9-6.8 2.5-13.9 5.9-20.4 10.2-6.5 4.2-13 9.9-18.4 16.7-4.2 5.7-7.6 11.6-10.5 18.1-4.2 9.6-7.1 19.5-9.6 30s-4.8 21.2-7.4 32c-1.4 5.4-2.5 10.2-3.7 15.3l-23.5-88.3h-9.6c-17 .3-41 .3-59.4.3H43.6L0 273.7l73-5.9 14.7-82.3 20.9 79.5 81.8-6.5 2-8.8c.6-2 1.1-4.5 1.7-7.6 1.1-4.8 2.3-11 4-19.5s4-18.7 7.1-31.4c5.7-27.7 11-51.8 15-69 2-8.5 3.7-15.6 4.5-20.1.6-2.3.8-4.2 1.4-5.4.3-.6.3-1.1.3-1.4v-.6c.3-.6 1.7-7.4 4-15 1.1-4 2.3-8.2 3.7-11.9 1.1-4 2.5-7.4 3.7-9.6 2.5-5.7 5.9-10.5 9.6-14.7 6.8-7.9 13.9-13.9 17.5-17C269.1 22.1 300 0 300 0" style="fill:#820024"/><path d="M187.6 43.6c-14.1 18.1-17.8 45.8-25.2 75.6-9.1 36.5-14.7 64.8-14.7 64.8l-34-128.2c-17 .3-41 .3-59.4.3l-39 203.7 47-3.7 22.6-128.5 32.8 123.9 62.5-5.1c1.7-6.8 4.8-24.6 12.7-58.3 11.6-55.5 21.5-97.1 21.5-97.1s6.2-26.6 12.2-39.1C239.4 24.6 266 12.7 266 12.7s-53.5-1.1-78.4 30.9" style="fill:#fff"/></svg>