<svg xmlns="http://www.w3.org/2000/svg" xml:space="preserve" width="217.90352" height="240.20503" viewBox="0 0 217.90352 240.20503"><defs><clipPath id="a" clipPathUnits="userSpaceOnUse"><path d="M0 841.89h595.276V0H0Z"/></clipPath></defs><g clip-path="url(#a)" transform="matrix(1.33333 0 0 -1.33333 -271.434 869.158)"><path d="M226.829 573.064c-12.901 22.988-7.766 50.375 11.465 61.172 19.23 10.791 45.281.904 58.185-22.086 4.081-7.271 6.351-14.986 6.949-22.476h18.238c.38 10.37-1.929 20.998-7.252 30.81-15.702 28.945-51.603 39.831-80.195 24.324s-39.041-51.545-23.341-80.485c11.806-21.757 35.021-33.304 57.965-31.115v13.428c-15.812-.349-32.492 9.468-42.014 26.428" style="fill:#252b66;fill-opacity:1;fill-rule:nonzero;stroke:none"/><path d="M322.168 485.082h-29.276v91.652h27.789c14.006 0 19.945-8.697 19.945-15.912 0-7.213-5.094-15.696-22.491-15.696h-12.943v-14.644h11.882c19.095 0 28.428-11.879 28.428-22.485s-9.755-22.915-23.334-22.915m24.751 52.544c11.313 2.829 16.973 14.147 16.973 22.062 0 7.924-4.246 29.986-34.511 29.986h-60.538V471.715h59.971c31.399 0 38.189 26.592 38.189 33.946 0 9.616-4.525 28.288-20.084 31.965" style="fill:#252b66;fill-opacity:1;fill-rule:nonzero;stroke:none"/></g></svg>