<svg xmlns="http://www.w3.org/2000/svg" width="640.85773" height="400.978" viewBox="0 0 640.85773 400.97801"><defs><clipPath id="a" clipPathUnits="userSpaceOnUse"><path d="M0 1000h730V0H0Z"/></clipPath></defs><g clip-path="url(#a)" transform="matrix(1.33333 0 0 -1.33333 -211.86 982.154)"><path d="m0 0 5.389 22.271-109.563-.355c-35.207-1.082-67.535-20.123-85.499-50.292-2.153-3.956-4.668-8.259-6.821-12.936l-14.013-51.369c-.36 0-.36-.715 0-1.076h3.236c.36 0 .36 0 .36.361L-199.369-74c5.75 16.526 20.834 26.943 37.717 26.943h100.944c24.785-.72 48.133 13.648 57.117 37.717C-2.158-6.46-1.076-3.951 0 0" style="fill:#f60;fill-opacity:1;fill-rule:nonzero;stroke:none" transform="translate(634.15 714.345)"/><path d="M0 0a99 99 0 0 1 4.308-11.493L28.016.36zs-.721.36-.721.722c-.36.716-.36.716-.36 1.437v.716c0 2.514 1.081 5.389 2.514 7.542 1.797 1.442 4.311 2.875 7.186 2.875l96.277.36-21.56 48.494c-18.681 28.381-50.292 45.625-84.417 46.34h-107.768L-57.12-86.57c8.987-33.049 28.739-62.507 57.12-82.619 26.583-19.397 60.704-26.228 93.036-18.321 23.349 5.745 40.591 24.065 45.264 47.417 1.432 7.182 1.432 15.085 0 22.988l-4.673 13.292c.719 4.311 2.156 8.263 4.673 11.494 5.388 7.902 13.292 13.291 22.266 16.166 2.874 1.076 5.749 1.437 8.264 1.437h103.458c24.068-1.798 47.777 11.133 59.271 32.327 3.952 6.826 7.186 15.09 7.903 22.277l1.437 15.084H199.364c-24.064 0-45.259-14.368-53.883-35.923-1.793-4.313-3.225-9.34-3.951-14.73l-10.412-39.153c-.365 0-.723-.716-.723-.716-.719 0-1.08 0-1.08.716l-14.368 14.73C81.182-51.368 37.355-37.711-6.471-40.951c-12.207 0-24.069-5.384-29.455-16.161l-8.261 27.299c-2.158 5.754-1.079 12.214 1.793 18.32 2.517 5.389 7.545 9.34 14.013 10.417C-26.588-.716-24.79 0-22.995 0z" style="fill:#f60;fill-opacity:1;fill-rule:nonzero;stroke:none" transform="translate(267.744 626.692)"/><path d="M0 0h80.827c25.861.36 51.368 10.426 71.125 27.304 9.701 9.696 19.757 22.271 26.223 34.486l-154.106-.36c.717-19.402-5.749-38.799-17.603-53.528Z" style="fill:#f60;fill-opacity:1;fill-rule:nonzero;stroke:none" transform="translate(401.371 443.13)"/></g></svg>