<svg xmlns="http://www.w3.org/2000/svg" width="114.31576mm" height="107.58744mm" viewBox="0 0 114.31576 107.58744"><g style="stroke-width:.0843019"><path d="M118.236 105.01v-.967h-3.674v2.47h-2.288v-2.47h-3.675v.968l1.069.119v6.895l-1.069.12v.968h3.675v-.002h.29l1.686.002.312-.001h3.674v-.968l-1.068-.12v-6.894zm-3.674 4.47v2.425h-.103v-2.425zm-2.206 0v2.425h-.082v-2.425z" style="fill:#fff;stroke:none;stroke-width:.0297398" transform="matrix(11.86214 0 0 11.86214 -1288.217 -1234.17)"/><path d="M118.027 104.824v-.573h-3.258v3.28h-2.703v-3.28h-3.258v.573l1.068.12v7.267l-1.068.12v.573h3.258v-3.633h2.704v3.633h3.257v-.574l-1.068-.119v-7.267z" style="fill:#2c2c2b;stroke:none;stroke-width:.0297398" transform="matrix(11.86214 0 0 11.86214 -1288.217 -1234.17)"/><path d="M116.039 106.72h-5.499v2.045h1.105v-.613h.919v3.962h-.843v.789h3.372v-.79h-.843v-3.961h.919v.613h1.104v-2.044z" style="fill:#ffd300;stroke:none;stroke-width:.0297398" transform="matrix(11.86214 0 0 11.86214 -1288.217 -1234.17)"/></g></svg>